HIERARCHY
ROOT Hips
{
	OFFSET 48.051498 -13.232913 84.180000
	CHANNELS 6 Xposition Yposition Zposition Xrotation Yrotation Zrotation
	JOINT spine
	{
		OFFSET 0.000000 -0.359108 6.244789
		CHANNELS 3 Xrotation Yrotation Zrotation
		JOINT spine1
		{
			OFFSET 0.000000 -0.000002 9.069412
			CHANNELS 3 Xrotation Yrotation Zrotation
			JOINT spine2
			{
				OFFSET 0.000000 -0.000001 8.690140
				CHANNELS 3 Xrotation Yrotation Zrotation
				JOINT Neck
				{
					OFFSET 0.000000 -1.063724 22.311203
					CHANNELS 3 Xrotation Yrotation Zrotation
					JOINT Head
					{
						OFFSET 0.000000 -0.000001 6.740814
						CHANNELS 3 Xrotation Yrotation Zrotation
						End Site
						{
							OFFSET 0.000000 5.380967 16.316498
						}
					}
				}
				JOINT RightShoulder
				{
					OFFSET -3.659161 0.509512 9.384682
					CHANNELS 3 Xrotation Yrotation Zrotation
					JOINT RightArm
					{
						OFFSET 0.000000 -0.000002 12.308907
						CHANNELS 3 Xrotation Yrotation Zrotation
						JOINT RightArmRoll
						{
							OFFSET 0.000000 -0.000001 6.213745
							CHANNELS 3 Xrotation Yrotation Zrotation
							JOINT RightForeArm
							{
								OFFSET 0.000000 -0.000003 18.098495
								CHANNELS 3 Xrotation Yrotation Zrotation
								JOINT RightForeArmRoll
								{
									OFFSET 0.000000 -0.000002 6.972794
									CHANNELS 3 Xrotation Yrotation Zrotation
									JOINT RightHand
									{
										OFFSET 0.000000 -0.000002 13.992905
										CHANNELS 3 Xrotation Yrotation Zrotation
										End Site
										{
											OFFSET 0.000000 0.000000 0.100006
										}
									}
								}
							}
						}
					}
				}
				JOINT LeftShoulder
				{
					OFFSET 3.659161 0.509512 9.384682
					CHANNELS 3 Xrotation Yrotation Zrotation
					JOINT LeftArm
					{
						OFFSET 0.000000 -0.000002 12.308907
						CHANNELS 3 Xrotation Yrotation Zrotation
						JOINT LeftArmRoll
						{
							OFFSET 0.000000 -0.000001 6.213745
							CHANNELS 3 Xrotation Yrotation Zrotation
							JOINT LeftForeArm
							{
								OFFSET 0.000000 -0.000003 18.098495
								CHANNELS 3 Xrotation Yrotation Zrotation
								JOINT LeftForeArmRoll
								{
									OFFSET 0.000000 -0.000002 6.972794
									CHANNELS 3 Xrotation Yrotation Zrotation
									JOINT LeftHand
									{
										OFFSET 0.000000 -0.000002 13.992905
										CHANNELS 3 Xrotation Yrotation Zrotation
										End Site
										{
											OFFSET 0.000000 0.000000 0.100006
										}
									}
								}
							}
						}
					}
				}
			}
		}
	}
	JOINT RightUpLeg
	{
		OFFSET -5.535149 0.851454 -1.014999
		CHANNELS 3 Xrotation Yrotation Zrotation
		JOINT RightUpLegRoll
		{
			OFFSET 0.000000 -0.000003 16.407501
			CHANNELS 3 Xrotation Yrotation Zrotation
			JOINT RightLeg
			{
				OFFSET 0.000000 0.000003 -20.318100
				CHANNELS 3 Xrotation Yrotation Zrotation
				JOINT RightLegRoll
				{
					OFFSET 0.000000 -0.000003 20.384598
					CHANNELS 3 Xrotation Yrotation Zrotation
					JOINT RightFoot
					{
						OFFSET 0.000000 -0.000003 16.966805
						CHANNELS 3 Xrotation Yrotation Zrotation
						JOINT RightToeBase
						{
							OFFSET 0.000000 -0.000002 14.183395
							CHANNELS 3 Xrotation Yrotation Zrotation
							End Site
							{
								OFFSET 0.006012 0.791744 6.868896
							}
						}
					}
				}
			}
		}
	}
	JOINT LeftUpLeg
	{
		OFFSET 5.535149 0.851454 -1.014999
		CHANNELS 3 Xrotation Yrotation Zrotation
		JOINT LeftUpLegRoll
		{
			OFFSET 0.000000 -0.000003 16.407600
			CHANNELS 3 Xrotation Yrotation Zrotation
			JOINT LeftLeg
			{
				OFFSET 0.000000 -0.000003 20.318100
				CHANNELS 3 Xrotation Yrotation Zrotation
				JOINT LeftLegRoll
				{
					OFFSET 0.000000 -0.000004 20.573105
					CHANNELS 3 Xrotation Yrotation Zrotation
					JOINT LeftFoot
					{
						OFFSET 0.000000 -0.000003 16.778305
						CHANNELS 3 Xrotation Yrotation Zrotation
						JOINT LeftToeBase
						{
							OFFSET 0.000000 -0.000002 14.183395
							CHANNELS 3 Xrotation Yrotation Zrotation
							End Site
							{
								OFFSET -0.026943 0.791745 6.868896
							}
						}
					}
				}
			}
		}
	}
}
MOTION
Frames: 8
Frame Time: 0.041667
47.523899 -15.505512 84.084297 -2.469099 0.017935 -3.779827 -1.424208 0.297781 0.058188 1.165614 0.601813 0.133826 2.810726 0.603127 0.126763 10.984587 -5.699970 -0.046191 -0.360561 2.946053 0.381459 -1.325900 -68.409652 -2.565289 -51.714986 -128.044573 -89.337331 0.000007 -0.000000 -0.000007 91.781801 0.685524 -7.426660 -0.000006 -0.000004 -2.999999 -5.000004 -7.999969 -0.000000 -14.215644 59.729629 16.792391 -42.323335 129.207549 84.046673 -0.000006 0.000001 0.000002 85.156606 2.054860 5.038412 -0.000002 -0.000003 3.000011 -4.999871 8.000036 -0.000000 -3.862822 -176.065925 0.772927 -179.999991 0.000005 -0.888999 167.364196 -0.039037 -1.161750 -0.000002 0.000003 0.098910 70.363653 5.616241 5.470983 25.456962 -7.355624 0.000035 2.633423 176.473729 -3.398475 -0.000005 0.000011 -1.132120 -12.214828 1.036380 0.903622 -0.000003 -0.000003 -0.465120 76.134623 -6.727595 -2.072052 25.634895 7.354830 -0.264831 
47.513901 -15.504314 84.083099 -2.464389 0.022441 -3.782614 -1.424479 0.297739 0.057993 1.162804 0.601790 0.133344 2.807916 0.603115 0.126269 11.000990 -5.695857 -0.046557 -0.355316 2.942283 0.379974 -1.315398 -68.412636 -2.553860 -51.790183 -127.996816 -89.245840 0.000005 0.000001 -0.000005 91.782142 0.685754 -7.417679 -0.000004 -0.000006 -2.999999 -5.000002 -7.999977 -0.000000 -14.230137 59.703353 16.808821 -42.380627 129.189914 83.996874 -0.000006 -0.000001 0.000005 85.191187 2.029501 5.056929 -0.000001 0.000002 3.000009 -4.999876 8.000033 -0.000001 -3.867492 -176.074928 0.765952 -179.999991 0.000005 -0.888999 167.368499 -0.036106 -1.161090 -0.000002 0.000003 0.098911 70.359589 5.615474 5.471855 25.456957 -7.355625 0.000034 2.626155 176.464699 -3.403450 -0.000005 0.000011 -1.132120 -12.217136 1.038756 0.903621 -0.000004 -0.000003 -0.465120 76.137539 -6.727632 -2.072081 25.633280 7.354828 -0.262487 
47.511799 -15.500212 84.084602 -2.459559 0.027078 -3.785458 -1.424779 0.297682 0.057794 1.159844 0.601753 0.132880 2.804955 0.603091 0.125794 11.017805 -5.692223 -0.047149 -0.349881 2.938666 0.378282 -1.303798 -68.416625 -2.541325 -51.867575 -127.946642 -89.157164 0.000006 0.000000 -0.000006 91.782081 0.686208 -7.407673 -0.000007 -0.000004 -2.999998 -5.000001 -7.999976 -0.000001 -14.245018 59.675800 16.825664 -42.437075 129.174150 83.948004 -0.000008 -0.000002 0.000005 85.222599 2.005841 5.073979 -0.000001 0.000000 3.000011 -4.999874 8.000038 0.000000 -3.872421 -176.083930 0.758650 -179.999991 0.000005 -0.888999 167.372310 -0.033174 -1.161429 -0.000002 0.000004 0.098913 70.355812 5.614625 5.472900 25.456959 -7.355625 0.000034 2.618693 176.455697 -3.408540 -0.000005 0.000011 -1.132120 -12.219648 1.041169 0.903619 -0.000004 -0.000003 -0.465120 76.140886 -6.727636 -2.071981 25.631666 7.354825 -0.260043 
47.508900 -15.497311 84.083908 -2.454640 0.031808 -3.788317 -1.425099 0.297616 0.057593 1.156765 0.601705 0.132429 2.801876 0.603056 0.125333 11.034928 -5.688919 -0.047887 -0.344309 2.935147 0.376445 -1.291440 -68.421420 -2.528022 -51.944166 -127.895921 -89.067484 0.000007 -0.000001 -0.000007 91.781664 0.686721 -7.399674 -0.000004 -0.000005 -3.000003 -5.000001 -7.999971 -0.000000 -14.260171 59.647298 16.842806 -42.494090 129.158672 83.901183 -0.000006 -0.000000 0.000006 85.251716 1.983413 5.090143 -0.000003 0.000001 3.000012 -4.999875 8.000032 -0.000002 -3.877547 -176.093929 0.751174 -179.999991 0.000005 -0.888999 167.375903 -0.031227 -1.160990 -0.000002 0.000003 0.098914 70.352239 5.613755 5.473929 25.456957 -7.355624 0.000034 2.611107 176.446695 -3.413710 -0.000005 0.000011 -1.132120 -12.222358 1.043612 0.903619 -0.000002 -0.000003 -0.465120 76.144452 -6.727630 -2.071967 25.629843 7.354831 -0.257510 
47.503201 -15.486709 84.085411 -2.449670 0.036590 -3.791204 -1.425426 0.297544 0.057392 1.153634 0.601652 0.131987 2.798745 0.603017 0.124879 11.052157 -5.685820 -0.048727 -0.338659 2.931689 0.374530 -1.278643 -68.426713 -2.514275 -52.021081 -127.844093 -88.978391 0.000006 0.000000 -0.000005 91.781213 0.687331 -7.391673 -0.000005 -0.000004 -2.999998 -5.000005 -7.999970 -0.000000 -14.275451 59.618290 16.860076 -42.550555 129.144083 83.854526 -0.000006 0.000000 0.000006 85.279618 1.961647 5.105561 -0.000001 0.000002 3.000010 -4.999871 8.000038 -0.000002 -3.882787 -176.102931 0.743505 -179.999991 0.000005 -0.888999 167.379304 -0.028295 -1.161329 -0.000002 0.000003 0.098917 70.348749 5.612826 5.475144 25.456955 -7.355624 0.000036 2.603431 176.436668 -3.418968 -0.000005 0.000011 -1.132120 -12.225168 1.046063 0.903619 -0.000003 -0.000003 -0.465120 76.148126 -6.727627 -2.072049 25.628022 7.354831 -0.254935 
47.506100 -15.485810 84.083603 -2.444679 0.041384 -3.794083 -1.425761 0.297470 0.057189 1.150483 0.601598 0.131546 2.795595 0.602977 0.124426 11.069486 -5.682755 -0.049592 -0.332990 2.928251 0.372592 -1.265729 -68.432116 -2.500419 -52.097664 -127.791992 -88.888990 0.000006 0.000000 -0.000007 91.780646 0.687972 -7.382693 -0.000005 -0.000004 -3.000001 -5.000002 -7.999970 -0.000003 -14.290765 59.589159 16.877385 -42.606942 129.129466 83.807937 -0.000006 0.000002 0.000008 85.307096 1.940129 5.120908 -0.000001 0.000002 3.000008 -4.999873 8.000033 -0.000003 -3.888055 -176.112944 0.735870 -179.999991 0.000005 -0.888998 167.382706 -0.025377 -1.161685 -0.000002 0.000003 0.098920 70.345273 5.611931 5.476262 25.456959 -7.355625 0.000034 2.595740 176.427666 -3.424186 -0.000005 0.000011 -1.132120 -12.227977 1.048515 0.903617 -0.000004 -0.000003 -0.465120 76.151821 -6.727645 -2.072031 25.626310 7.354828 -0.252364 
47.507801 -15.495611 84.078400 -2.439718 0.046151 -3.796963 -1.426077 0.297399 0.056987 1.147364 0.601546 0.131102 2.792475 0.602939 0.123970 11.086612 -5.679596 -0.050417 -0.327357 2.924773 0.370697 -1.253024 -68.437211 -2.486766 -52.173940 -127.739605 -88.799358 0.000005 -0.000000 -0.000006 91.780196 0.688579 -7.373698 -0.000005 -0.000005 -2.999999 -5.000003 -7.999973 -0.000000 -14.305940 59.560247 16.894529 -42.662977 129.114727 83.760495 -0.000007 -0.000001 0.000005 85.335304 1.918242 5.136637 -0.000002 0.000002 3.000007 -4.999873 8.000032 -0.000000 -3.893258 -176.122944 0.728305 -179.999991 0.000005 -0.888999 167.386203 -0.022444 -1.161028 -0.000002 0.000003 0.098922 70.341707 5.611056 5.477391 25.456957 -7.355624 0.000035 2.588092 176.418650 -3.429375 -0.000005 0.000011 -1.132120 -12.230688 1.050967 0.903616 -0.000003 -0.000003 -0.465120 76.155496 -6.727640 -2.072010 25.624491 7.354829 -0.249809 
47.504299 -15.489612 84.081802 -2.434820 0.050853 -3.799827 -1.426387 0.297335 0.056787 1.144313 0.601502 0.130648 2.789435 0.602908 0.123505 11.103633 -5.676206 -0.051131 -0.321820 2.921225 0.368906 -1.240861 -68.441808 -2.473659 -52.247918 -127.688242 -88.707287 0.000005 0.000001 -0.000006 91.779895 0.689063 -7.364715 -0.000007 -0.000003 -3.000000 -5.000006 -7.999973 -0.000002 -14.320939 59.532059 16.911485 -42.719227 129.098990 83.712472 -0.000006 0.000003 0.000005 85.365139 1.895528 5.153120 -0.000003 0.000003 3.000012 -4.999873 8.000032 -0.000002 -3.898330 -176.131946 0.720838 -179.999991 0.000005 -0.888998 167.389796 -0.019512 -1.161367 -0.000002 0.000004 0.098924 70.338115 5.610153 5.478417 25.456959 -7.355624 0.000035 2.580545 176.408637 -3.434564 -0.000005 0.000011 -1.132120 -12.233297 1.053401 0.903616 -0.000003 -0.000003 -0.465120 76.159048 -6.727607 -2.071994 25.622773 7.354826 -0.247298 
